<svg xmlns="http://www.w3.org/2000/svg" width="48" height="48" viewBox="0 0 48 48" fill="none">
  <g filter="url(#filter0_d_1_258)">
    <circle cx="24" cy="20" r="20" fill="white" fill-opacity="0.3"/>
    <circle cx="24" cy="20" r="20" fill="#6E707A" fill-opacity="0.3"/>
    <path d="M24 16C21.79 16 20 17.79 20 20C20 22.21 21.79 24 24 24C26.21 24 28 22.21 28 20C28 17.79 26.21 16 24 16ZM32.94 19C32.48 14.83 29.17 11.52 25 11.06V10C25 9.45 24.55 9 24 9C23.45 9 23 9.45 23 10V11.06C18.83 11.52 15.52 14.83 15.06 19H14C13.45 19 13 19.45 13 20C13 20.55 13.45 21 14 21H15.06C15.52 25.17 18.83 28.48 23 28.94V30C23 30.55 23.45 31 24 31C24.55 31 25 30.55 25 30V28.94C29.17 28.48 32.48 25.17 32.94 21H34C34.55 21 35 20.55 35 20C35 19.45 34.55 19 34 19H32.94ZM24 27C20.13 27 17 23.87 17 20C17 16.13 20.13 13 24 13C27.87 13 31 16.13 31 20C31 23.87 27.87 27 24 27Z" fill="#E7E7EB"/>
  </g>
  <defs>
    <filter id="filter0_d_1_258" x="0" y="0" width="48" height="48" filterUnits="userSpaceOnUse" color-interpolation-filters="sRGB">
      <feFlood flood-opacity="0" result="BackgroundImageFix"/>
      <feColorMatrix in="SourceAlpha" type="matrix" values="0 0 0 0 0 0 0 0 0 0 0 0 0 0 0 0 0 0 127 0" result="hardAlpha"/>
      <feOffset dy="4"/>
      <feGaussianBlur stdDeviation="2"/>
      <feColorMatrix type="matrix" values="0 0 0 0 0 0 0 0 0 0 0 0 0 0 0 0 0 0 0.25 0"/>
      <feBlend mode="normal" in2="BackgroundImageFix" result="effect1_dropShadow_1_258"/>
      <feBlend mode="normal" in="SourceGraphic" in2="effect1_dropShadow_1_258" result="shape"/>
    </filter>
  </defs>
</svg>